<svg width="16" height="16" viewBox="0 0 16 16" fill="none" xmlns="http://www.w3.org/2000/svg">
<path d="M8.68241 2.14623L12.5222 6.02623C12.7148 6.22144 12.7148 6.53768 12.5222 6.73289C12.4305 6.82819 12.3046 6.88194 12.1731 6.88194C12.0417 6.88194 11.9158 6.82819 11.8241 6.73289L8.8273 3.70623V11.1929C8.8273 11.469 8.60615 11.6929 8.33333 11.6929C8.06052 11.6929 7.83936 11.469 7.83936 11.1929V3.70623L4.84261 6.73289C4.75091 6.82797 4.62479 6.88095 4.49354 6.87956C4.36243 6.88019 4.23659 6.82732 4.14446 6.73289C3.95185 6.53768 3.95185 6.22144 4.14446 6.02623L7.98426 2.14623C8.17712 1.95126 8.48955 1.95126 8.68241 2.14623Z" fill="#F3734E"/>
<path d="M5.0402 12.7196H11.6265C11.8993 12.7196 12.1204 12.9434 12.1204 13.2196C12.1204 13.4957 11.8993 13.7196 11.6265 13.7196H5.0402C4.76739 13.7196 4.54623 13.4957 4.54623 13.2196C4.54623 12.9434 4.76739 12.7196 5.0402 12.7196Z" fill="#F3734E"/>
</svg>
