<svg width="16" height="16" viewBox="0 0 16 16" fill="none" xmlns="http://www.w3.org/2000/svg">
<g clip-path="url(#clip0_3145_27954)">
<path d="M6.79816 7.99967C8.6391 7.99967 10.1315 6.50729 10.1315 4.66634C10.1315 2.82539 8.6391 1.33301 6.79816 1.33301C4.95722 1.33301 3.46484 2.82539 3.46484 4.66634C3.46484 6.50729 4.95722 7.99967 6.79816 7.99967Z" stroke="#F3734E" stroke-linecap="round" stroke-linejoin="round"/>
<path d="M0.667969 14.6667C1.04822 13.3555 1.83327 12.1981 2.91089 11.3599C3.98851 10.5218 5.30354 10.0458 6.66797 10C9.41464 10 11.7546 11.94 12.668 14.6667" stroke="#F3734E" stroke-linecap="round" stroke-linejoin="round"/>
<path d="M11.8816 2.95996C12.3894 3.22031 12.8003 3.63671 13.0539 4.14795C13.3075 4.65919 13.3905 5.23827 13.2905 5.80013C13.1905 6.36199 12.9129 6.87692 12.4985 7.26932C12.0841 7.66165 11.5547 7.91072 10.9883 7.97992" stroke="#F3734E" stroke-linecap="round" stroke-linejoin="round"/>
<path d="M11.5469 9.71387C12.4362 9.94047 13.2519 10.3927 13.9153 11.0269C14.5787 11.661 15.0671 12.4556 15.3335 13.3338" stroke="#F3734E" stroke-linecap="round" stroke-linejoin="round"/>
</g>
<defs>
<clipPath id="clip0_3145_27954">
<rect width="16" height="16" fill="white"/>
</clipPath>
</defs>
</svg>
