<svg width="16" height="16" viewBox="0 0 16 16" fill="none" xmlns="http://www.w3.org/2000/svg">
<path d="M13.5018 7.77515C14.1446 7.19577 13.7979 6.12875 12.9373 6.03786L10.6555 5.79689C10.3006 5.75941 9.99254 5.5356 9.84721 5.20962L8.91334 3.11499C8.56095 2.32459 7.43905 2.32459 7.08666 3.11499L6.15279 5.20962C6.00746 5.5356 5.69941 5.75941 5.34448 5.79689L3.06269 6.03786C2.20207 6.12875 1.85538 7.19577 2.49822 7.77515L4.20248 9.31118C4.4676 9.55013 4.58527 9.91226 4.51125 10.2614L4.03556 12.5049C3.85606 13.3515 4.76373 14.011 5.5134 13.5786L7.50041 12.4327C7.8096 12.2543 8.1904 12.2543 8.49959 12.4327L10.4866 13.5786C11.2363 14.011 12.1439 13.3515 11.9644 12.5049L11.4888 10.2614C11.4147 9.91226 11.5324 9.55013 11.7975 9.31118L13.5018 7.77515Z" fill="#FFAF40"/>
</svg>
