<svg width="36" height="36" viewBox="0 0 36 36" fill="none" xmlns="http://www.w3.org/2000/svg">
<rect width="36" height="36" rx="18" fill="#FFECE1"/>
<path d="M6.322 21.11C5.794 21.11 5.31367 20.989 4.881 20.747C4.44833 20.4977 4.10367 20.1493 3.847 19.702C3.59767 19.2473 3.473 18.7303 3.473 18.151C3.473 17.5423 3.605 17.0143 3.869 16.567C4.14033 16.1197 4.49233 15.7823 4.925 15.555C5.35767 15.3203 5.82333 15.203 6.322 15.203C6.74 15.203 7.12133 15.2763 7.466 15.423C7.81067 15.5623 8.082 15.7603 8.28 16.017C8.48533 16.2737 8.588 16.5633 8.588 16.886C8.588 17.128 8.52567 17.315 8.401 17.447C8.27633 17.5717 8.11133 17.634 7.906 17.634C7.708 17.634 7.543 17.568 7.411 17.436C7.279 17.304 7.213 17.139 7.213 16.941C7.323 16.8677 7.4 16.787 7.444 16.699C7.488 16.611 7.51 16.501 7.51 16.369C7.51 16.0977 7.4 15.8777 7.18 15.709C6.96733 15.533 6.68133 15.445 6.322 15.445C5.794 15.445 5.387 15.6357 5.101 16.017C4.82233 16.391 4.683 16.919 4.683 17.601V18.701C4.683 19.3537 4.81867 19.878 5.09 20.274C5.36867 20.67 5.77933 20.868 6.322 20.868C6.82067 20.868 7.25333 20.7287 7.62 20.45C7.994 20.164 8.225 19.79 8.313 19.328H8.566C8.46333 19.8707 8.20667 20.3033 7.796 20.626C7.39267 20.9487 6.90133 21.11 6.322 21.11ZM12.3376 21.11C11.8096 21.11 11.3293 20.989 10.8966 20.747C10.464 20.4977 10.1193 20.1493 9.86263 19.702C9.61329 19.2473 9.48863 18.7303 9.48863 18.151C9.48863 17.5717 9.61329 17.0583 9.86263 16.611C10.1193 16.1637 10.464 15.819 10.8966 15.577C11.3293 15.3277 11.8096 15.203 12.3376 15.203C12.8656 15.203 13.346 15.3277 13.7786 15.577C14.2113 15.819 14.5523 16.1637 14.8016 16.611C15.0583 17.0583 15.1866 17.5717 15.1866 18.151C15.1866 18.7303 15.0583 19.2473 14.8016 19.702C14.5523 20.1493 14.2113 20.4977 13.7786 20.747C13.346 20.989 12.8656 21.11 12.3376 21.11ZM12.3376 20.868C12.8803 20.868 13.2873 20.67 13.5586 20.274C13.8373 19.878 13.9766 19.3537 13.9766 18.701V17.601C13.9766 16.9483 13.8373 16.4277 13.5586 16.039C13.2873 15.643 12.8803 15.445 12.3376 15.445C11.795 15.445 11.3843 15.643 11.1056 16.039C10.8343 16.4277 10.6986 16.9483 10.6986 17.601V18.701C10.6986 19.3537 10.8343 19.878 11.1056 20.274C11.3843 20.67 11.795 20.868 12.3376 20.868ZM15.9513 20.78L16.7213 20.67V15.632L15.9513 15.522V15.302H17.8213V16.314C18.0853 15.9693 18.3823 15.698 18.7123 15.5C19.0496 15.302 19.4126 15.203 19.8013 15.203C20.2486 15.203 20.6116 15.302 20.8903 15.5C21.1763 15.6907 21.356 15.9803 21.4293 16.369C21.6933 16.0097 21.994 15.7273 22.3313 15.522C22.6686 15.3093 23.039 15.203 23.4423 15.203C23.963 15.203 24.3663 15.335 24.6523 15.599C24.9456 15.8557 25.0923 16.248 25.0923 16.776V20.67L25.8623 20.78V21H23.3323V20.78L23.9923 20.67V16.798C23.9923 16.4093 23.9226 16.1123 23.7833 15.907C23.644 15.7017 23.4166 15.599 23.1013 15.599C22.8006 15.599 22.5073 15.7017 22.2213 15.907C21.9426 16.1123 21.6896 16.3763 21.4623 16.699V20.67L22.1223 20.78V21H19.6913V20.78L20.3513 20.67V16.798C20.3513 16.4093 20.2816 16.1123 20.1423 15.907C20.003 15.7017 19.7756 15.599 19.4603 15.599C19.1596 15.599 18.8663 15.7017 18.5803 15.907C18.3016 16.1123 18.0486 16.3763 17.8213 16.699V20.67L18.4813 20.78V21H15.9513V20.78ZM26.3605 20.78L27.1305 20.67V15.632L26.3605 15.522V15.302H28.2305V16.49C28.5018 16.094 28.8208 15.7823 29.1875 15.555C29.5541 15.3203 29.9501 15.203 30.3755 15.203C30.9035 15.203 31.3178 15.335 31.6185 15.599C31.9265 15.863 32.0805 16.2553 32.0805 16.776V20.67L32.8505 20.78V21H30.3205V20.78L30.9805 20.67V16.798C30.9805 16.4167 30.9035 16.1233 30.7495 15.918C30.5955 15.7053 30.3571 15.599 30.0345 15.599C29.6971 15.599 29.3708 15.7237 29.0555 15.973C28.7475 16.215 28.4725 16.5157 28.2305 16.875V20.67L28.8905 20.78V21H26.3605V20.78Z" fill="#F3734E"/>
</svg>
