<svg width="17" height="22" viewBox="0 0 17 22" fill="none" xmlns="http://www.w3.org/2000/svg">
<path d="M4.92 12.18C4.048 12.18 3.286 12 2.634 11.64C1.982 11.28 1.474 10.772 1.11 10.116C0.75 9.456 0.57 8.686 0.57 7.806C0.57 7.166 0.676 6.58 0.888 6.048C1.104 5.512 1.406 5.048 1.794 4.656C2.186 4.264 2.648 3.96 3.18 3.744C3.712 3.528 4.296 3.42 4.932 3.42C5.572 3.42 6.124 3.5 6.588 3.66C7.056 3.82 7.464 4.048 7.812 4.344L7.116 5.442C6.852 5.198 6.544 5.016 6.192 4.896C5.84 4.776 5.452 4.716 5.028 4.716C4.56 4.716 4.138 4.788 3.762 4.932C3.386 5.076 3.064 5.282 2.796 5.55C2.532 5.814 2.328 6.136 2.184 6.516C2.044 6.892 1.974 7.318 1.974 7.794C1.974 8.442 2.1 8.996 2.352 9.456C2.608 9.916 2.968 10.268 3.432 10.512C3.9 10.752 4.452 10.872 5.088 10.872C5.512 10.872 5.92 10.81 6.312 10.686C6.708 10.558 7.078 10.352 7.422 10.068L8.046 11.202C7.642 11.518 7.18 11.76 6.66 11.928C6.144 12.096 5.564 12.18 4.92 12.18Z" fill="#F3734E"/>
<path d="M12.92 19.18C12.048 19.18 11.286 19 10.634 18.64C9.982 18.28 9.474 17.772 9.11 17.116C8.75 16.456 8.57 15.686 8.57 14.806C8.57 14.166 8.676 13.58 8.888 13.048C9.104 12.512 9.406 12.048 9.794 11.656C10.186 11.264 10.648 10.96 11.18 10.744C11.712 10.528 12.296 10.42 12.932 10.42C13.572 10.42 14.124 10.5 14.588 10.66C15.056 10.82 15.464 11.048 15.812 11.344L15.116 12.442C14.852 12.198 14.544 12.016 14.192 11.896C13.84 11.776 13.452 11.716 13.028 11.716C12.56 11.716 12.138 11.788 11.762 11.932C11.386 12.076 11.064 12.282 10.796 12.55C10.532 12.814 10.328 13.136 10.184 13.516C10.044 13.892 9.974 14.318 9.974 14.794C9.974 15.442 10.1 15.996 10.352 16.456C10.608 16.916 10.968 17.268 11.432 17.512C11.9 17.752 12.452 17.872 13.088 17.872C13.512 17.872 13.92 17.81 14.312 17.686C14.708 17.558 15.078 17.352 15.422 17.068L16.046 18.202C15.642 18.518 15.18 18.76 14.66 18.928C14.144 19.096 13.564 19.18 12.92 19.18Z" fill="#F3734E"/>
</svg>
