<svg width="24" height="24" viewBox="0 0 24 24" fill="none" xmlns="http://www.w3.org/2000/svg">
<g id="passport_agod9sifxbfb 1" clip-path="url(#clip0_3040_28643)">
<g id="Group">
<path id="Vector" d="M19.3109 0.62207H4.68216C3.56184 0.62207 2.65039 1.53352 2.65039 2.65384V21.3461C2.65039 22.4665 3.56184 23.3779 4.68216 23.3779H19.3109C20.4312 23.3779 21.3427 22.4665 21.3427 21.3461V2.65384C21.3427 1.53352 20.4312 0.62207 19.3109 0.62207ZM20.53 21.3461C20.53 22.0184 19.9831 22.5652 19.3109 22.5652H4.68216C4.01 22.5652 3.4631 22.0184 3.4631 21.3461V2.65384C3.4631 1.98163 4.01 1.43478 4.68216 1.43478H19.3109C19.9831 1.43478 20.53 1.98163 20.53 2.65384V21.3461Z" fill="#F3734E"/>
<path id="Vector_2" d="M11.9956 3.87305C8.8587 3.87305 6.30664 6.42511 6.30664 9.56201C6.30664 12.6989 8.8587 15.251 11.9956 15.251C15.1325 15.251 17.6846 12.6989 17.6846 9.56201C17.6846 6.42511 15.1325 3.87305 11.9956 3.87305ZM16.4279 11.5938H15.0402C15.1483 11.0849 15.2164 10.5395 15.2385 9.96836H16.8548C16.807 10.5441 16.6589 11.0918 16.4279 11.5938ZM7.56334 7.53024H8.95099C8.84295 8.03909 8.77479 8.58452 8.75274 9.15566H7.13642C7.18416 8.5799 7.33228 8.03224 7.56334 7.53024ZM10.3702 6.71753H10.0302C10.4006 5.70779 10.9577 4.9794 11.5892 4.75712V9.15566H9.56647C9.59141 8.5827 9.66841 8.03442 9.78778 7.53024H10.3702C10.5946 7.53024 10.7765 7.34829 10.7765 7.12388C10.7765 6.89947 10.5946 6.71753 10.3702 6.71753ZM13.961 6.71753H12.402V4.75712C13.0335 4.9794 13.5906 5.70779 13.961 6.71753ZM7.13642 9.96836H8.75274C8.77479 10.5395 8.84295 11.0849 8.95099 11.5938H7.56334C7.33228 11.0918 7.18416 10.5441 7.13642 9.96836ZM9.56647 9.96836H11.5892V11.5938H9.78778C9.66846 11.0896 9.59141 10.5413 9.56647 9.96836ZM11.5892 12.4065V14.3669C10.9577 14.1446 10.4006 13.4162 10.0302 12.4065H11.5892ZM12.402 14.3669V12.4065H13.961C13.5906 13.4162 13.0335 14.1446 12.402 14.3669ZM12.402 11.5938V7.53024H14.2034C14.3227 8.03442 14.3997 8.5827 14.4247 9.15566H13.621C13.3966 9.15566 13.2147 9.3376 13.2147 9.56201C13.2147 9.78642 13.3966 9.96836 13.621 9.96836H14.4247C14.3998 10.5413 14.3228 11.0896 14.2035 11.5938H12.402ZM15.2385 9.15566C15.2164 8.58452 15.1483 8.03909 15.0402 7.53024H16.4279C16.6589 8.03224 16.807 8.5799 16.8548 9.15566H15.2385ZM15.9539 6.71753H14.8244C14.6295 6.11501 14.3734 5.58441 14.0699 5.14961C14.8231 5.50517 15.4712 6.04786 15.9539 6.71753ZM9.92132 5.14961C9.61782 5.58436 9.36177 6.11496 9.16677 6.71753H8.03736C8.52 6.04786 9.16809 5.50517 9.92132 5.14961ZM8.03736 12.4065H9.16677C9.36172 13.009 9.61782 13.5396 9.92132 13.9744C9.16809 13.6189 8.52 13.0762 8.03736 12.4065ZM14.0699 13.9744C14.3734 13.5397 14.6294 13.0091 14.8244 12.4065H15.9538C15.4712 13.0762 14.8231 13.6189 14.0699 13.9744Z" fill="#F3734E"/>
<path id="Vector_3" d="M17.1766 17.2832H6.713C6.48859 17.2832 6.30664 17.4651 6.30664 17.6896C6.30664 17.914 6.48859 18.0959 6.713 18.0959H17.1766C17.401 18.0959 17.583 17.914 17.583 17.6896C17.583 17.4651 17.401 17.2832 17.1766 17.2832Z" fill="#F3734E"/>
<path id="Vector_4" d="M10.4186 18.9092H8.33604C8.11163 18.9092 7.92969 19.0911 7.92969 19.3155C7.92969 19.5399 8.11163 19.7219 8.33604 19.7219H10.4186C10.643 19.7219 10.825 19.5399 10.825 19.3155C10.825 19.0911 10.643 18.9092 10.4186 18.9092Z" fill="#F3734E"/>
<path id="Vector_5" d="M15.6573 18.9092H12.0001C11.7757 18.9092 11.5938 19.0911 11.5938 19.3155C11.5938 19.5399 11.7757 19.7219 12.0001 19.7219H15.6573C15.8817 19.7219 16.0636 19.5399 16.0636 19.3155C16.0636 19.0911 15.8817 18.9092 15.6573 18.9092Z" fill="#F3734E"/>
</g>
</g>
<defs>
<clipPath id="clip0_3040_28643">
<rect width="23" height="23" fill="white" transform="translate(0.5 0.5)"/>
</clipPath>
</defs>
</svg>
