<svg width="26" height="26" viewBox="0 0 26 26" fill="none" xmlns="http://www.w3.org/2000/svg">
<g id="subscribe_10829106 1">
<g id="Group">
<path id="Vector" d="M15.4375 21.5312C15.4366 21.8542 15.3079 22.1636 15.0795 22.392C14.8511 22.6204 14.5417 22.7491 14.2188 22.75H11.7812C11.458 22.75 11.148 22.6216 10.9195 22.393C10.6909 22.1645 10.5625 21.8545 10.5625 21.5312C10.5625 21.208 10.6909 20.898 10.9195 20.6695C11.148 20.4409 11.458 20.3125 11.7812 20.3125H14.2188C14.5417 20.3134 14.8511 20.4421 15.0795 20.6705C15.3079 20.8989 15.4366 21.2083 15.4375 21.5312Z" fill="#F3734E"/>
<path id="Vector_2" d="M20.3125 16.6562H5.6875C5.46313 16.6562 5.28125 16.8381 5.28125 17.0625V18.2812C5.28125 18.5056 5.46313 18.6875 5.6875 18.6875H20.3125C20.5369 18.6875 20.7188 18.5056 20.7188 18.2812V17.0625C20.7188 16.8381 20.5369 16.6562 20.3125 16.6562Z" fill="#F3734E"/>
<path id="Vector_3" d="M20.3125 13H5.6875C5.46313 13 5.28125 13.1819 5.28125 13.4062V14.625C5.28125 14.8494 5.46313 15.0312 5.6875 15.0312H20.3125C20.5369 15.0312 20.7188 14.8494 20.7188 14.625V13.4062C20.7188 13.1819 20.5369 13 20.3125 13Z" fill="#F3734E"/>
<path id="Vector_4" d="M16.4082 11.375C16.4084 11.4284 16.398 11.4813 16.3777 11.5307C16.3573 11.5801 16.3274 11.6249 16.2896 11.6627C16.2519 11.7004 16.207 11.7304 16.1576 11.7507C16.1083 11.7711 16.0554 11.7814 16.002 11.7812H9.50195C9.39421 11.7812 9.29088 11.7384 9.21469 11.6623C9.1385 11.5861 9.0957 11.4827 9.0957 11.375C9.0957 11.2673 9.1385 11.1639 9.21469 11.0877C9.29088 11.0116 9.39421 10.9688 9.50195 10.9688H9.9082C10.0159 10.9688 10.1193 10.9259 10.1955 10.8498C10.2717 10.7736 10.3145 10.6702 10.3145 10.5625V10.4812C10.316 9.96454 10.5219 9.46943 10.8873 9.10406C11.2526 8.73869 11.7477 8.53276 12.2645 8.53125H13.2395C13.7566 8.53125 14.2526 8.7367 14.6183 9.10239C14.984 9.46809 15.1895 9.96408 15.1895 10.4812V10.5625C15.1895 10.6702 15.2323 10.7736 15.3084 10.8498C15.3846 10.9259 15.488 10.9688 15.5957 10.9688H16.002C16.0554 10.9686 16.1083 10.9789 16.1576 10.9993C16.207 11.0196 16.2519 11.0496 16.2896 11.0873C16.3274 11.1251 16.3573 11.1699 16.3777 11.2193C16.398 11.2687 16.4084 11.3216 16.4082 11.375Z" fill="#F3734E"/>
<path id="Vector_5" d="M12.752 7.71875C13.6494 7.71875 14.377 6.99121 14.377 6.09375C14.377 5.19629 13.6494 4.46875 12.752 4.46875C11.8545 4.46875 11.127 5.19629 11.127 6.09375C11.127 6.99121 11.8545 7.71875 12.752 7.71875Z" fill="#F3734E"/>
<path id="Vector_6" d="M21.125 24.7812H4.875C4.33647 24.7806 3.82019 24.5664 3.43939 24.1856C3.05859 23.8048 2.84438 23.2885 2.84375 22.75V4.46875C2.84438 3.93022 3.05859 3.41394 3.43939 3.03314C3.82019 2.65234 4.33647 2.43813 4.875 2.4375H19.0938C19.2015 2.4375 19.3048 2.4803 19.381 2.55649C19.4572 2.63267 19.5 2.73601 19.5 2.84375C19.5 2.95149 19.4572 3.05483 19.381 3.13101C19.3048 3.2072 19.2015 3.25 19.0938 3.25H4.875C4.55188 3.25035 4.24209 3.37887 4.01361 3.60736C3.78512 3.83584 3.6566 4.14563 3.65625 4.46875V22.75C3.6566 23.0731 3.78512 23.3829 4.01361 23.6114C4.24209 23.8399 4.55188 23.9684 4.875 23.9688H21.125C21.4481 23.9684 21.7579 23.8399 21.9864 23.6114C22.2149 23.3829 22.3434 23.0731 22.3438 22.75V6.5C22.3438 6.39226 22.3866 6.28892 22.4627 6.21274C22.5389 6.13655 22.6423 6.09375 22.75 6.09375C22.8577 6.09375 22.9611 6.13655 23.0373 6.21274C23.1134 6.28892 23.1562 6.39226 23.1562 6.5V22.75C23.1556 23.2885 22.9414 23.8048 22.5606 24.1856C22.1798 24.5664 21.6635 24.7806 21.125 24.7812Z" fill="#F3734E"/>
<path id="Vector_7" d="M25.1875 2.84375C25.1872 2.9514 25.1443 3.05455 25.0682 3.13067C24.992 3.20679 24.8889 3.24969 24.7812 3.25H23.1562V4.875C23.1562 4.98274 23.1134 5.08608 23.0373 5.16226C22.9611 5.23845 22.8577 5.28125 22.75 5.28125C22.6423 5.28125 22.5389 5.23845 22.4627 5.16226C22.3866 5.08608 22.3438 4.98274 22.3438 4.875V3.25H20.7188C20.611 3.25 20.5077 3.2072 20.4315 3.13101C20.3553 3.05483 20.3125 2.95149 20.3125 2.84375C20.3125 2.73601 20.3553 2.63267 20.4315 2.55649C20.5077 2.4803 20.611 2.4375 20.7188 2.4375H22.3438V0.8125C22.3438 0.704756 22.3866 0.601425 22.4627 0.525238C22.5389 0.449051 22.6423 0.40625 22.75 0.40625C22.8577 0.40625 22.9611 0.449051 23.0373 0.525238C23.1134 0.601425 23.1562 0.704756 23.1562 0.8125V2.4375H24.7812C24.8889 2.43781 24.992 2.48071 25.0682 2.55683C25.1443 2.63295 25.1872 2.7361 25.1875 2.84375Z" fill="#F3734E"/>
</g>
</g>
</svg>
