<svg width="16" height="16" viewBox="0 0 16 16" fill="none" xmlns="http://www.w3.org/2000/svg">
<path d="M10.603 6.29413L12.8848 6.5351C13.3151 6.58054 13.4885 7.11405 13.167 7.40374L11.4628 8.93977C11.0651 9.29819 10.8886 9.8414 10.9996 10.3651L11.4753 12.6086C11.5651 13.0319 11.1112 13.3616 10.7364 13.1455L8.74939 11.9995C8.2856 11.732 7.7144 11.732 7.25062 11.9995L5.26361 13.1455C4.88877 13.3616 4.43494 13.0319 4.52469 12.6086L5.00037 10.3651C5.11141 9.8414 4.93491 9.29819 4.53723 8.93977L2.83297 7.40374C2.51155 7.11405 2.68489 6.58054 3.1152 6.5351L5.39699 6.29413C5.92939 6.2379 6.39146 5.90219 6.60946 5.41322L7.54333 3.31859C7.71953 2.92339 8.28047 2.92339 8.45667 3.31859L9.39054 5.41323C9.60854 5.90219 10.0706 6.2379 10.603 6.29413Z" stroke="#FFAF40"/>
</svg>
